<svg id="visual" viewBox="0 0 960 540" width="960" height="540" xmlns="http://www.w3.org/2000/svg" xmlns:xlink="http://www.w3.org/1999/xlink" version="1.1"><rect x="0" y="0" width="960" height="540" fill="#001220"></rect><path d="M0 372L22.8 381.5C45.7 391 91.3 410 137 418.8C182.7 427.7 228.3 426.3 274 416.5C319.7 406.7 365.3 388.3 411.2 380.3C457 372.3 503 374.7 548.8 381.7C594.7 388.7 640.3 400.3 686 407C731.7 413.7 777.3 415.3 823 417.5C868.7 419.7 914.3 422.3 937.2 423.7L960 425L960 541L937.2 541C914.3 541 868.7 541 823 541C777.3 541 731.7 541 686 541C640.3 541 594.7 541 548.8 541C503 541 457 541 411.2 541C365.3 541 319.7 541 274 541C228.3 541 182.7 541 137 541C91.3 541 45.7 541 22.8 541L0 541Z" fill="#fa7268"></path><path d="M0 391L22.8 393.7C45.7 396.3 91.3 401.7 137 408.7C182.7 415.7 228.3 424.3 274 431.7C319.7 439 365.3 445 411.2 440.3C457 435.7 503 420.3 548.8 411C594.7 401.7 640.3 398.3 686 398.8C731.7 399.3 777.3 403.7 823 410.2C868.7 416.7 914.3 425.3 937.2 429.7L960 434L960 541L937.2 541C914.3 541 868.7 541 823 541C777.3 541 731.7 541 686 541C640.3 541 594.7 541 548.8 541C503 541 457 541 411.2 541C365.3 541 319.7 541 274 541C228.3 541 182.7 541 137 541C91.3 541 45.7 541 22.8 541L0 541Z" fill="#ef5f67"></path><path d="M0 432L22.8 433.2C45.7 434.3 91.3 436.7 137 438.5C182.7 440.3 228.3 441.7 274 445.2C319.7 448.7 365.3 454.3 411.2 453C457 451.7 503 443.3 548.8 444.2C594.7 445 640.3 455 686 459.5C731.7 464 777.3 463 823 458.5C868.7 454 914.3 446 937.2 442L960 438L960 541L937.2 541C914.3 541 868.7 541 823 541C777.3 541 731.7 541 686 541C640.3 541 594.7 541 548.8 541C503 541 457 541 411.2 541C365.3 541 319.7 541 274 541C228.3 541 182.7 541 137 541C91.3 541 45.7 541 22.8 541L0 541Z" fill="#e34c67"></path><path d="M0 468L22.8 472.3C45.7 476.7 91.3 485.3 137 490.3C182.7 495.3 228.3 496.7 274 492.5C319.7 488.3 365.3 478.7 411.2 473.5C457 468.3 503 467.7 548.8 466.7C594.7 465.7 640.3 464.3 686 467.3C731.7 470.3 777.3 477.7 823 480.3C868.7 483 914.3 481 937.2 480L960 479L960 541L937.2 541C914.3 541 868.7 541 823 541C777.3 541 731.7 541 686 541C640.3 541 594.7 541 548.8 541C503 541 457 541 411.2 541C365.3 541 319.7 541 274 541C228.3 541 182.7 541 137 541C91.3 541 45.7 541 22.8 541L0 541Z" fill="#d53867"></path><path d="M0 495L22.8 499C45.7 503 91.3 511 137 512C182.7 513 228.3 507 274 502.2C319.7 497.3 365.3 493.7 411.2 493C457 492.3 503 494.7 548.8 496.7C594.7 498.7 640.3 500.3 686 498.5C731.7 496.7 777.3 491.3 823 489.8C868.7 488.3 914.3 490.7 937.2 491.8L960 493L960 541L937.2 541C914.3 541 868.7 541 823 541C777.3 541 731.7 541 686 541C640.3 541 594.7 541 548.8 541C503 541 457 541 411.2 541C365.3 541 319.7 541 274 541C228.3 541 182.7 541 137 541C91.3 541 45.7 541 22.8 541L0 541Z" fill="#c62368"></path></svg>